<?xml version="1.0" encoding="utf-8"?>
<!-- Generator: Adobe Illustrator 26.1.0, SVG Export Plug-In . SVG Version: 6.00 Build 0)  -->
<svg version="1.1" xmlns="http://www.w3.org/2000/svg" xmlns:xlink="http://www.w3.org/1999/xlink" x="0px" y="0px"
	 viewBox="0 0 435.5 512.5" style="enable-background:new 0 0 435.5 512.5;" xml:space="preserve">
<style type="text/css">
	.st0{fill:#66995C;}
	.st1{fill:#78B36B;}
	.st2{fill:#E3EBCC;}
	.st3{fill:#005DDF;}
</style>
<g id="BACKGROUND">
</g>
<g id="OBJECTS">
	<path class="st0" d="M-449.6,634.2c0,21.1-12.7,39.5-20.4,57.8c-7.9,19-12.2,41-26.5,55.3c-14.3,14.3-36.3,18.6-55.3,26.5
		c-18.3,7.6-36.7,20.4-57.8,20.4c-21.1,0-39.5-12.7-57.8-20.4c-19-7.9-41-12.2-55.3-26.5c-14.3-14.3-18.6-36.3-26.5-55.3
		c-7.6-18.3-20.4-36.7-20.4-57.8s12.7-39.5,20.4-57.8c7.9-19,12.2-41,26.5-55.3c14.3-14.3,36.3-18.6,55.3-26.5
		c18.3-7.6,36.7-20.4,57.8-20.4c21.1,0,39.5,12.7,57.8,20.4c19,7.9,41,12.2,55.3,26.5c14.3,14.3,18.6,36.3,26.5,55.3
		C-462.3,594.8-449.6,613.2-449.6,634.2z"/>
	<circle class="st1" cx="-609.6" cy="634.2" r="128"/>
	<circle class="st2" cx="-609.6" cy="634.2" r="64"/>
	<g>
		<path class="st2" d="M-609.6,558.2c-41.9,0-76,34.1-76,76c0,41.9,34.1,76,76,76c41.9,0,76-34.1,76-76
			C-533.6,592.3-567.7,558.2-609.6,558.2z M-609.6,708.2c-40.8,0-74-33.2-74-74s33.2-74,74-74c40.8,0,74,33.2,74,74
			S-568.8,708.2-609.6,708.2z"/>
		<path class="st2" d="M-706.4,599.2c-4.1,11.2-6.1,23-6.1,35c0,6.3,0.6,12.7,1.7,18.8l2.5-0.5c-1.1-6-1.7-12.2-1.7-18.4
			c0-11.7,2-23.2,6-34.2L-706.4,599.2z"/>
		<path class="st2" d="M-512.9,598.9l-2.3,0.9c4,11,6.1,22.7,6.1,34.5c0,6.2-0.6,12.4-1.7,18.4l2.5,0.5c1.1-6.2,1.7-12.5,1.7-18.8
			C-506.7,622.1-508.8,610.2-512.9,598.9z"/>
	</g>
	<g>
		<path class="st0" d="M-598.8,596.8v-7.4h0c-1,1.1-2.5,1.7-3,1.9c-0.1,0-0.2,0.1-0.2,0.1c-0.7,0.2-1.6,0.5-2.6,0.5
			c-0.2,0-0.5,0-0.7,0v8.9l-24.1,14.3v51.1c3,0,6.4,0.7,10,2.9c2.6,1.6,4.3,4,5.5,6.4c1.5-4.1,4.1-8.4,8.5-11.1
			c4.9-3,9.5-4,13.6-3.9v-67.7L-598.8,596.8z M-613,655.6h-10.8v-5h10.8V655.6z M-613,645.1h-10.8v-5h10.8V645.1z M-613,634.6h-10.8
			v-5h10.8V634.6z M-613,624.1h-10.8v-5h10.8V624.1z M-597.8,655.6h-10.8v-5h10.8V655.6z M-597.8,645.1h-10.8v-5h10.8V645.1z
			 M-597.8,634.6h-10.8v-5h10.8V634.6z M-597.8,624.1h-10.8v-5h10.8V624.1z"/>
		<path class="st0" d="M-611.8,685.8c3.2,1.3,9.8,3.3,15.4-0.2c4.1-2.6,6-5.7,8.2-9.4c1.8-3.1,3.7-6.3,7.1-9.2
			c-4.1-2.3-12.9-5.7-22.6,0.3c-5.3,3.3-7.5,9.8-8.4,14.3c7.8-7.2,17.3-12.6,27.7-14.3C-595.3,670.2-604.8,677.3-611.8,685.8z"/>
		<path class="st0" d="M-620.9,671.2c-7.4-4.6-14.1-1.9-17.1-0.2c2.6,2.2,4,4.6,5.4,6.9c1.6,2.7,3,5.1,6.1,7.1
			c4.3,2.7,9.3,1.1,11.7,0.1c-5.3-6.4-12.4-11.7-20.6-13.9c7.8,1.3,15,5.4,20.9,10.9C-615.2,678.8-616.9,673.7-620.9,671.2z"/>
		<path class="st0" d="M-604.1,587.1c0.1,1.1,0.6,2,1,2.5c-1.1,0.3-2.7,0.5-4.1-0.4c-1.4-0.9-2-1.9-2.7-3.1c-0.6-1-1.2-2.1-2.4-3
			c1.3-0.8,4.2-2,7.5,0c0.5,0.3,0.9,0.7,1.2,1.2c-0.2,0.3-0.4,0.7-0.5,1.2c-0.1,0.2-0.1,0.5-0.1,0.7c-2.1-1.5-4.4-2.6-6.9-3
			C-608.4,583.9-606.1,585.3-604.1,587.1z"/>
		<path class="st0" d="M-601.4,589.3c1-0.5,2.5-1.4,3-3c0.8-2.7-0.6-4.6-1.4-5.4c-0.5,1-1.1,1.6-1.7,2.3c-0.7,0.7-1.3,1.4-1.7,2.5
			c-0.5,1.6,0.5,3,1,3.7c1.6-2.2,2.6-4.9,2.6-7.6C-599.4,584.4-600.1,587-601.4,589.3z"/>
	</g>
</g>
<g id="TEXTS">
	<g>
		<path id="SVGID_x5F_1_x5F_" style="fill:none;" d="M-708.3,645.6c0,54.5,44.2,98.7,98.7,98.7c54.5,0,98.7-44.2,98.7-98.7"/>
		<text>		<textPath  xlink:href="#SVGID_x5F_1_x5F_" startOffset="0.9035%">
<tspan  style="fill:#FFFFFF; font-family:'Roboto-Bold'; font-size:20px; letter-spacing:200;">CARBON NEUTRAL</tspan>		</textPath>
</text>
	</g>
	<path id="SVGID_x5F_00000164500480181493047800000003119175914392641163_x5F_" style="fill:none;" d="M-701.1,636
		c0-50.5,41-91.5,91.5-91.5c50.5,0,91.5,38.7,91.5,91.5"/>
	<text>	<textPath  xlink:href="#SVGID_x5F_00000164500480181493047800000003119175914392641163_x5F_" startOffset="0%">
<tspan  style="fill:#FFFFFF; font-family:'Roboto-Black'; font-size:28px; letter-spacing:200;">NET ZERO</tspan>	</textPath>
</text>
	<path class="st3" d="M221.5,512c-2.7,0-5.3,0-8,0c-9.4-1.9-17.4-7.2-25.8-11.5c-21.4-11-42.3-23.1-62.3-36.7
		c-25.6-17.3-50.3-36-71.7-58.5C33.8,384.5,16.6,361.8,7.3,334c-4.5-13.3-6.7-27.1-6.7-41.2c0-69.5,0-139,0-208.5c0-1.7,0-3.3,0-5
		c0.2-10.8,3.9-16,14.3-19.6c7.2-2.5,14.6-4.5,21.9-6.7C93,36.4,149,19.6,205,2.7c8.4-2.5,16.6-2.5,25,0
		c62.4,18.8,124.8,37.5,187.2,56.2c13.3,4,17.2,9,17.2,23c0,70.3,0,140.6,0,211c0,23.8-6.3,46-18.1,66.6
		c-14.9,25.9-34.8,47.6-57.4,67c-26.3,22.6-54.8,42.1-84.8,59.4c-14.7,8.5-29.7,16.4-44.9,23.8C226.6,510.9,224,511.1,221.5,512z"/>
</g>
</svg>
